<?xml version="1.0"?>
<svg xmlns="http://www.w3.org/2000/svg" height="512px" viewBox="-49 0 511 512" width="512px"><g><path d="m170.5 60c5.511719 0 10-4.488281 10-10s-4.488281-10-10-10c-5.519531 0-10 4.488281-10 10s4.480469 10 10 10zm0 0" data-original="#000000" class="active-path" data-old_color="#000000" fill="#FF9900"/><path d="m50.5 60h80c5.511719 0 10-4.488281 10-10s-4.488281-10-10-10h-80c-5.511719 0-10 4.488281-10 10s4.488281 10 10 10zm0 0" data-original="#000000" class="active-path" data-old_color="#000000" fill="#FF9900"/><path d="m282.5 40h-72c-5.511719 0-10 4.488281-10 10s4.488281 10 10 10h72c5.511719 0 10-4.488281 10-10s-4.488281-10-10-10zm0 0" data-original="#000000" class="active-path" data-old_color="#000000" fill="#FF9900"/><path d="m252.5 90c0-5.523438-4.476562-10-10-10h-152c-5.523438 0-10 4.476562-10 10s4.476562 10 10 10h152c5.523438 0 10-4.476562 10-10zm0 0" data-original="#000000" class="active-path" data-old_color="#000000" fill="#FF9900"/><path d="m200.5 170c0-5.511719-4.488281-10-10-10h-10c-5.511719 0-10 4.488281-10 10s4.488281 10 10 10h10c5.511719 0 10-4.488281 10-10zm0 0" data-original="#000000" class="active-path" data-old_color="#000000" fill="#FF9900"/><path d="m90.5 180h10c5.511719 0 10-4.488281 10-10s-4.488281-10-10-10h-10c-5.511719 0-10 4.488281-10 10s4.488281 10 10 10zm0 0" data-original="#000000" class="active-path" data-old_color="#000000" fill="#FF9900"/><path d="m240.5 170c0-5.511719-4.488281-10-10-10-5.519531 0-10 4.488281-10 10s4.480469 10 10 10c5.511719 0 10-4.488281 10-10zm0 0" data-original="#000000" class="active-path" data-old_color="#000000" fill="#FF9900"/><path d="m150.5 170c0-5.511719-4.488281-10-10-10-5.519531 0-10 4.488281-10 10s4.480469 10 10 10c5.511719 0 10-4.488281 10-10zm0 0" data-original="#000000" class="active-path" data-old_color="#000000" fill="#FF9900"/><path d="m280.5 180c5.511719 0 10-4.488281 10-10s-4.488281-10-10-10h-10c-5.519531 0-10 4.488281-10 10s4.480469 10 10 10zm0 0" data-original="#000000" class="active-path" data-old_color="#000000" fill="#FF9900"/><path d="m190.5 210c0-5.511719-4.488281-10-10-10h-90c-5.511719 0-10 4.488281-10 10s4.488281 10 10 10h90c5.511719 0 10-4.488281 10-10zm0 0" data-original="#000000" class="active-path" data-old_color="#000000" fill="#FF9900"/><path d="m282.5 200h-22c-5.519531 0-10 4.488281-10 10s4.480469 10 10 10h22c5.511719 0 10-4.488281 10-10s-4.488281-10-10-10zm0 0" data-original="#000000" class="active-path" data-old_color="#000000" fill="#FF9900"/><path d="m210.5 210c0 5.511719 4.480469 10 10 10 5.511719 0 10-4.488281 10-10s-4.488281-10-10-10c-5.519531 0-10 4.488281-10 10zm0 0" data-original="#000000" class="active-path" data-old_color="#000000" fill="#FF9900"/><path d="m282.5 240h-90c-5.511719 0-10 4.488281-10 10s4.488281 10 10 10h90c5.511719 0 10-4.488281 10-10s-4.488281-10-10-10zm0 0" data-original="#000000" class="active-path" data-old_color="#000000" fill="#FF9900"/><path d="m142.5 250c0 5.511719 4.488281 10 10 10s10-4.488281 10-10-4.488281-10-10-10-10 4.488281-10 10zm0 0" data-original="#000000" class="active-path" data-old_color="#000000" fill="#FF9900"/><path d="m90.5 240c-5.511719 0-10 4.488281-10 10s4.488281 10 10 10h22c5.511719 0 10-4.488281 10-10s-4.488281-10-10-10zm0 0" data-original="#000000" class="active-path" data-old_color="#000000" fill="#FF9900"/><path d="m172.5 290c0-5.523438-4.476562-10-10-10h-112c-5.523438 0-10 4.476562-10 10s4.476562 10 10 10h112c5.523438 0 10-4.476562 10-10zm0 0" data-original="#000000" class="active-path" data-old_color="#000000" fill="#FF9900"/><path d="m90.5 320c-5.511719 0-10 4.488281-10 10s4.488281 10 10 10h10c5.511719 0 10-4.488281 10-10s-4.488281-10-10-10zm0 0" data-original="#000000" class="active-path" data-old_color="#000000" fill="#FF9900"/><path d="m280.5 340c5.511719 0 10-4.488281 10-10s-4.488281-10-10-10h-10c-5.519531 0-10 4.488281-10 10s4.480469 10 10 10zm0 0" data-original="#000000" class="active-path" data-old_color="#000000" fill="#FF9900"/><path d="m130.5 330c0 5.511719 4.480469 10 10 10 5.511719 0 10-4.488281 10-10s-4.488281-10-10-10c-5.519531 0-10 4.488281-10 10zm0 0" data-original="#000000" class="active-path" data-old_color="#000000" fill="#FF9900"/><path d="m170.5 330c0 5.511719 4.488281 10 10 10h10c5.511719 0 10-4.488281 10-10s-4.488281-10-10-10h-10c-5.511719 0-10 4.488281-10 10zm0 0" data-original="#000000" class="active-path" data-old_color="#000000" fill="#FF9900"/><path d="m240.5 330c0-5.511719-4.488281-10-10-10-5.519531 0-10 4.488281-10 10s4.480469 10 10 10c5.511719 0 10-4.488281 10-10zm0 0" data-original="#000000" class="active-path" data-old_color="#000000" fill="#FF9900"/><path d="m282.5 360h-192c-5.523438 0-10 4.476562-10 10s4.476562 10 10 10h192c5.523438 0 10-4.476562 10-10s-4.476562-10-10-10zm0 0" data-original="#000000" class="active-path" data-old_color="#000000" fill="#FF9900"/><path d="m402.5 80h-30v-30c0-5.523438-4.476562-10-10-10h-30v-30c0-5.523438-4.476562-10-10-10h-312c-5.523438 0-10 4.476562-10 10v412c0 5.523438 4.476562 10 10 10h30v30c0 5.523438 4.476562 10 10 10h30v30c0 5.523438 4.476562 10 10 10h312c5.523438 0 10-4.476562 10-10v-412c0-5.523438-4.476562-10-10-10zm-382 332v-392h292v392zm40 40v-20h262c5.523438 0 10-4.476562 10-10v-362h20v392zm332 40h-292v-20h262c5.523438 0 10-4.476562 10-10v-362h20zm0 0" data-original="#000000" class="active-path" data-old_color="#000000" fill="#FF9900"/></g> </svg>
