<?xml version="1.0" encoding="UTF-8"?>
<!DOCTYPE svg PUBLIC "-//W3C//DTD SVG 1.1//EN" "http://www.w3.org/Graphics/SVG/1.1/DTD/svg11.dtd">
<!-- Creator: CorelDRAW Home & Student X6 -->
<svg xmlns="http://www.w3.org/2000/svg" xml:space="preserve" width="188.664mm" height="56.4829mm" version="1.1" style="shape-rendering:geometricPrecision; text-rendering:geometricPrecision; image-rendering:optimizeQuality; fill-rule:evenodd; clip-rule:evenodd" viewBox="0 0 18820 5634" xmlns:xlink="http://www.w3.org/1999/xlink">
 <defs>
  <style type="text/css">
   <![CDATA[
    .fil0 {fill:#FCA311}
   ]]>
  </style>
 </defs>
 <g id="Layer_x0020_1">
  <metadata id="CorelCorpID_0Corel-Layer"/>
  <path id="o1" class="fil0" d="M3493 4286c-267,-10 -505,-62 -714,-155 -89,-40 -176,-90 -261,-151 -85,-61 -161,-136 -228,-226 -67,-89 -122,-195 -162,-317 -41,-121 -61,-261 -61,-421l0 12c0,-160 20,-300 61,-421 40,-122 94,-228 162,-318 67,-90 143,-166 228,-227 85,-61 172,-111 261,-151 209,-93 447,-145 714,-156l510 0c266,12 504,63 713,156 89,40 176,90 262,151 85,61 162,136 229,227 67,90 121,196 162,318 41,121 62,261 62,421l0 -12c0,160 -21,300 -62,421 -41,122 -94,228 -162,317 -67,89 -144,165 -229,226 -86,61 -173,111 -262,151 -209,93 -447,145 -713,155l-510 0zm116 -1870c-164,4 -310,28 -438,72 -55,18 -108,42 -161,70 -51,29 -99,65 -140,108 -41,43 -73,93 -99,151 -25,59 -38,126 -38,203l0 -3c0,77 13,144 38,203 25,58 58,108 99,151 41,43 88,79 140,108 52,28 106,52 161,71 128,43 274,68 438,75l279 0c163,-6 309,-31 437,-75 55,-19 108,-43 161,-71 52,-29 100,-65 141,-108 41,-43 73,-93 99,-151 25,-59 38,-126 38,-203l0 3c0,-77 -13,-144 -38,-203 -25,-58 -58,-108 -99,-151 -41,-43 -88,-79 -141,-108 -52,-28 -106,-52 -161,-70 -128,-44 -274,-68 -437,-72l-279 0z"/>
  <path id="b" class="fil0" d="M6234 4299l-699 0 6 -3468c-5,-148 15,-280 61,-397 20,-49 46,-98 79,-146 33,-47 73,-90 124,-127 50,-38 110,-68 181,-91 71,-23 153,-35 249,-35l0 1713 1279 0c268,12 506,64 717,158 89,40 176,91 262,152 86,62 164,137 231,228 68,90 122,197 163,319 41,122 62,263 62,425l0 -13c0,108 -9,207 -28,296 -19,90 -45,172 -79,247 -34,75 -72,142 -118,201 -45,60 -94,113 -147,161 -54,47 -110,89 -169,125 -59,36 -118,67 -177,93 -211,93 -449,146 -717,157l-652 0 -77 0c-85,0 -158,-8 -219,-26 -62,-18 -114,-38 -157,-62 -43,-23 -80,-48 -107,-73 -28,-26 -50,-47 -67,-65l0 227zm0 -892c12,13 30,30 59,56 27,24 64,49 109,73 46,24 101,46 165,64 63,18 136,26 219,25l606 0c157,-5 298,-28 422,-69 52,-18 104,-40 154,-67 51,-28 97,-62 136,-102 40,-40 72,-87 97,-142 24,-55 36,-118 36,-189l0 3c0,-72 -12,-134 -36,-189 -24,-54 -57,-101 -97,-141 -40,-40 -85,-73 -136,-102 -50,-27 -102,-49 -154,-67 -124,-41 -264,-64 -422,-69l-1158 0 0 915z"/>
  <path id="c" class="fil0" d="M15361 4043c-45,59 -101,105 -167,136 -66,33 -140,56 -219,70 -81,16 -166,24 -255,26 -90,3 -181,4 -272,4l-725 0c-268,-11 -506,-62 -716,-155 -89,-39 -176,-88 -263,-149 -86,-61 -163,-136 -229,-226 -67,-90 -121,-195 -162,-317 -41,-121 -62,-261 -62,-421l0 7c0,-160 21,-300 62,-422 41,-122 94,-228 162,-317 66,-90 143,-165 229,-226 87,-61 174,-111 263,-151 210,-93 448,-145 716,-155l718 0c77,0 155,4 235,12 80,7 161,25 243,51 83,27 167,66 252,118 86,52 172,122 259,209l-418 545c-37,-45 -81,-85 -134,-120 -22,-16 -48,-30 -78,-44 -29,-14 -61,-26 -97,-37 -36,-10 -75,-20 -116,-26 -42,-6 -87,-9 -136,-8l-225 0 -383 0c-156,5 -297,28 -421,69 -52,17 -104,40 -154,67 -51,27 -96,61 -134,101 -40,40 -71,87 -96,141 -24,54 -36,116 -36,188l0 -3c0,71 12,134 36,189 24,55 56,101 96,141 39,40 83,73 134,101 50,27 102,49 154,67 124,41 264,63 421,67l383 0 1273 0c0,71 -7,136 -22,193 -14,58 -29,106 -47,147 -20,48 -43,91 -69,128z"/>
  <path id="o2" class="fil0" d="M16883 4286c-267,-10 -505,-62 -714,-155 -89,-40 -176,-90 -261,-151 -85,-61 -161,-136 -228,-226 -67,-89 -122,-195 -162,-317 -41,-121 -61,-261 -61,-421l0 12c0,-160 20,-300 61,-421 40,-122 94,-228 162,-318 67,-90 143,-166 228,-227 85,-61 172,-111 261,-151 209,-93 447,-145 714,-156l510 0c266,12 504,63 713,156 89,40 176,90 262,151 85,61 162,136 229,227 67,90 121,196 162,318 41,121 62,261 62,421l0 -12c0,160 -21,300 -62,421 -41,122 -94,228 -162,317 -67,89 -144,165 -229,226 -86,61 -173,111 -262,151 -209,93 -447,145 -713,155l-510 0zm116 -1870c-164,4 -310,28 -438,72 -55,18 -108,42 -161,70 -51,29 -99,65 -140,108 -41,43 -73,93 -99,151 -25,59 -38,126 -38,203l0 -3c0,77 13,144 38,203 25,58 58,108 99,151 41,43 88,79 140,108 52,28 106,52 161,71 128,43 274,68 438,75l279 0c163,-6 309,-31 437,-75 55,-19 108,-43 161,-71 52,-29 100,-65 141,-108 41,-43 73,-93 99,-151 25,-59 38,-126 38,-203l0 3c0,-77 -13,-144 -38,-203 -25,-58 -58,-108 -99,-151 -41,-43 -88,-79 -141,-108 -52,-28 -106,-52 -161,-70 -128,-44 -274,-68 -437,-72l-279 0z"/>
  <path id="y" class="fil0" d="M11034 4280c-28,6 -56,11 -84,15 13,411 20,852 20,1320 -94,0 -176,-11 -246,-31 -69,-22 -129,-49 -179,-83 -49,-34 -90,-72 -123,-115 -34,-43 -60,-87 -79,-131 -20,-44 -34,-88 -43,-130 -9,-42 -16,-79 -19,-111 -3,-33 -4,-57 -3,-75 1,-18 2,-24 2,-20 0,-222 0,-433 2,-633 -18,-2 -36,-5 -56,-8 -58,-8 -122,-20 -192,-38 -69,-17 -143,-39 -219,-67 -77,-28 -151,-64 -226,-108 -73,-44 -144,-98 -212,-158 -67,-62 -126,-134 -176,-218 -51,-83 -91,-178 -121,-287 -30,-108 -45,-230 -45,-366l0 -572c0,-103 10,-193 30,-270 20,-76 46,-142 79,-195 34,-55 71,-99 113,-133 42,-35 85,-62 129,-83 103,-47 221,-67 354,-60l0 1305c0,99 18,183 54,250 35,68 81,124 136,168 56,44 119,78 188,102 69,23 137,40 205,51 67,10 130,17 188,19 59,2 105,3 139,3 33,0 76,-1 130,-4 56,-2 114,-9 178,-22 63,-13 127,-31 192,-57 64,-25 123,-61 175,-106 52,-45 95,-103 128,-172 33,-69 50,-675 50,-773 0,-775 683,-1810 2155,-1733 -888,324 -1484,1028 -1449,2094l0 169c0,6 4,31 0,71 -66,709 -393,1014 -1173,1195z"/>
  <polygon class="fil0" points="13899,2 14049,467 14537,466 14141,752 14293,1215 13899,928 13505,1215 13656,752 13261,466 13749,467 "/>
  <path id="J" class="fil0" d="M1964 3627c0,310 -49,588 -147,837 -99,247 -246,466 -445,653 -363,344 -820,517 -1372,517l0 -779c199,-18 370,-60 514,-126 145,-66 264,-158 359,-277 86,-105 152,-232 195,-380 44,-148 66,-319 66,-513l0 -2780c-155,-1 -293,-29 -414,-81 -52,-23 -102,-54 -152,-90 -49,-37 -93,-84 -132,-139 -39,-55 -70,-121 -94,-198 -24,-76 -35,-166 -35,-270l1658 0 0 3627z"/>
 </g>
</svg>