<?xml version="1.0"?>
<svg xmlns="http://www.w3.org/2000/svg" xmlns:xlink="http://www.w3.org/1999/xlink" version="1.1" id="Layer_1" x="0px" y="0px" viewBox="0 0 512.898 512.898" style="enable-background:new 0 0 512.898 512.898;" xml:space="preserve" width="512px" height="512px" class=""><g><g transform="translate(1 1)">
	<g>
		<g>
			<path d="M88.825,349.765c-9.881,0-17.965,8.084-17.965,17.965s8.084,17.965,17.965,17.965c9.881,0,17.965-8.084,17.965-17.965     S98.705,349.765,88.825,349.765z" data-original="#000000" class="active-path" data-old_color="#000000" fill="#FF9900"/>
			<path d="M403.211,349.765c-9.881,0-17.965,8.084-17.965,17.965s8.084,17.965,17.965,17.965c9.881,0,17.965-8.084,17.965-17.965     S413.091,349.765,403.211,349.765z" data-original="#000000" class="active-path" data-old_color="#000000" fill="#FF9900"/>
			<path d="M503.814,203.351l-78.147-86.232c-6.288-6.288-14.372-9.881-22.456-9.881h-47.607h-35.032     c-14.372,0-25.151,10.779-25.151,24.253v137.432h-53.895v-26.947h26.947c5.389,0,8.982-3.593,8.982-8.982     c0-5.39-3.593-8.982-8.982-8.982h-26.947v-17.965h26.947c5.389,0,8.982-3.593,8.982-8.982c0-5.389-3.593-8.982-8.982-8.982     h-26.947v-17.965h26.947c5.389,0,8.982-3.593,8.982-8.982s-3.593-8.982-8.982-8.982h-26.947v-17.965h26.947     c5.389,0,8.982-3.593,8.982-8.982c0-5.389-3.593-8.982-8.982-8.982h-26.947V89.274c0-5.39-3.593-8.982-8.982-8.982     c-5.39,0-8.982,3.593-8.982,8.982v26.947H52.895V89.274c0-5.39-3.593-8.982-8.982-8.982s-8.982,3.593-8.982,8.982v26.947H7.982     c-5.39,0-8.982,3.593-8.982,8.982c0,5.389,3.593,8.982,8.982,8.982H34.93v17.965H7.982c-5.39,0-8.982,3.593-8.982,8.982     s3.593,8.982,8.982,8.982H34.93v17.965H7.982c-5.39,0-8.982,3.593-8.982,8.982c0,5.39,3.593,8.982,8.982,8.982H34.93v17.965     H7.982c-5.39,0-8.982,3.593-8.982,8.982c0,5.389,3.593,8.982,8.982,8.982H34.93v26.947H-1v86.232     c0,11.677,9.881,21.558,21.558,21.558h6.024c4.289,30.689,30.266,53.895,62.243,53.895c31.977,0,57.953-23.205,62.243-53.895     h189.9c4.289,30.689,30.266,53.895,62.243,53.895c31.977,0,57.953-23.205,62.243-53.895h23.989     c11.677,0,21.558-9.881,22.456-20.66v-123.06v-8.982C511.898,215.926,509.203,208.74,503.814,203.351z M403.211,125.204     c2.695,0,6.288,1.796,8.982,3.593l77.249,86.232H358.298v-89.825H403.211z M52.895,134.186h170.667v17.965H52.895V134.186z      M52.895,170.116h170.667v17.965H52.895V170.116z M52.895,206.046h170.667v17.965H52.895V206.046z M52.895,241.975h170.667     v26.947H52.895V241.975z M88.825,412.642c-25.151,0-44.912-19.761-44.912-44.912s19.761-44.912,44.912-44.912     s44.912,19.761,44.912,44.912S113.975,412.642,88.825,412.642z M403.211,412.642c-25.151,0-44.912-19.761-44.912-44.912     s19.761-44.912,44.912-44.912s44.912,19.761,44.912,44.912S428.361,412.642,403.211,412.642z M489.442,358.747h-23.989     c-4.289-30.689-30.266-53.895-62.243-53.895c-0.146,0-0.288,0.01-0.434,0.011c-0.155-0.001-0.309-0.011-0.465-0.011     c-31.439,0-57.488,23.354-61.979,53.895H151.068c-4.022-28.778-27.117-50.964-56.346-53.617c-0.212-0.02-0.427-0.03-0.641-0.048     c-0.737-0.06-1.474-0.12-2.219-0.155c-1.007-0.048-2.019-0.075-3.038-0.075s-2.031,0.027-3.038,0.075     c-0.745,0.034-1.482,0.095-2.219,0.155c-0.213,0.018-0.428,0.028-0.641,0.048c-29.229,2.653-52.324,24.839-56.346,53.617h-6.024     c-1.797,0-3.593-1.796-3.593-3.593v-68.267h296.421V131.491c0-3.593,2.695-6.288,7.186-6.288h19.761v92.519     c0,8.084,7.186,15.27,15.27,15.27h137.432v26.947h-44.912c-5.389,0-8.982,3.593-8.982,8.982s3.593,8.982,8.982,8.982h44.912     v77.249C493.035,356.951,491.239,358.747,489.442,358.747z" data-original="#000000" class="active-path" data-old_color="#000000" fill="#FF9900"/>
		</g>
	</g>
</g></g> </svg>
